<svg xmlns="http://www.w3.org/2000/svg" width="20" height="20" viewBox="0 0 14 14" fill="none">
                                    <path fillRule="evenodd" clipRule="evenodd" d="M6.63906 0C4.91051 0 3.48322 1.28895 3.26567 2.95833H2.87365C2.28453 2.95832 1.796 2.9583 1.41259 3.01187C1.00952 3.06819 0.647347 3.19254 0.371908 3.50028C0.0964673 3.80802 0.0128707 4.18172 0.00140834 4.58853C-0.00949549 4.97551 0.0444692 5.46105 0.109544 6.04654L0.291714 7.68605C0.427815 8.91103 0.534705 9.87314 0.716258 10.6209C0.902349 11.3873 1.17912 11.9855 1.69296 12.4454C2.20728 12.9057 2.83532 13.1145 3.62188 13.2147C4.38983 13.3125 5.36498 13.3125 6.60741 13.3125H6.67072C7.9131 13.3125 8.88828 13.3125 9.65621 13.2147C10.4428 13.1145 11.0708 12.9057 11.5852 12.4454C12.099 11.9855 12.3757 11.3873 12.5618 10.6209C12.7434 9.87314 12.8503 8.91109 12.9864 7.6861L13.1686 6.04654C13.2336 5.46106 13.2876 4.97551 13.2767 4.58853C13.2652 4.18172 13.1817 3.80802 12.9062 3.50028C12.6308 3.19254 12.2686 3.06819 11.8655 3.01187C11.4821 2.9583 10.9936 2.95832 10.4044 2.95833H10.0124C9.79501 1.28908 8.36756 0 6.63906 0ZM6.63906 0.8875C7.87641 0.8875 8.90503 1.78121 9.11459 2.95833H4.16346C4.37295 1.78133 5.40171 0.8875 6.63906 0.8875ZM1.03321 4.09217C1.11054 4.00577 1.23326 3.93305 1.5354 3.89083C1.85013 3.84686 2.27613 3.84583 2.90639 3.84583H10.3717C11.002 3.84583 11.428 3.84686 11.7427 3.89083C12.0448 3.93305 12.1675 4.00577 12.2449 4.09217C12.3222 4.17858 12.3809 4.30858 12.3895 4.61353C12.3985 4.93119 12.3525 5.3547 12.2829 5.9811L12.1078 7.55647C11.9674 8.81991 11.866 9.7254 11.6994 10.4115C11.5358 11.0853 11.3218 11.49 10.9933 11.7841C10.6652 12.0778 10.2373 12.246 9.54409 12.3343C8.8387 12.4242 7.92002 12.425 6.63906 12.425C5.35807 12.425 4.43941 12.4242 3.73402 12.3343C3.04073 12.246 2.61294 12.0778 2.28485 11.7841C1.95627 11.49 1.7423 11.0853 1.5787 10.4115C1.41212 9.7254 1.31066 8.81991 1.17027 7.55647L0.995235 5.9811C0.925631 5.3547 0.879606 4.93119 0.888557 4.61353C0.897148 4.30858 0.955871 4.17858 1.03321 4.09217Z" fill="white"></path>
                                    <path d="M10.1893 5.76874C10.1893 6.09552 9.92437 6.36041 9.59765 6.36041C9.27087 6.36041 9.00598 6.09552 9.00598 5.76874C9.00598 5.44198 9.27087 5.17708 9.59765 5.17708C9.92437 5.17708 10.1893 5.44198 10.1893 5.76874Z" fill="white"></path>
                                    <path d="M4.27208 5.76874C4.27208 6.09552 4.00718 6.36041 3.68041 6.36041C3.35365 6.36041 3.08875 6.09552 3.08875 5.76874C3.08875 5.44198 3.35365 5.17708 3.68041 5.17708C4.00718 5.17708 4.27208 5.44198 4.27208 5.76874Z" fill="white"></path>
                                </svg>