<svg xmlns="http://www.w3.org/2000/svg" width="20" height="20" viewBox="0 0 13 13" fill="none">
                                    <path d="M11.9688 8.25225C11.538 7.87367 11.0155 7.54657 10.4157 7.28007C10.1593 7.16621 9.8593 7.28165 9.74544 7.53794C9.63158 7.79423 9.74702 8.09425 10.0033 8.20821C10.509 8.43296 10.9448 8.70442 11.2984 9.01516C11.7343 9.3982 11.9844 9.95283 11.9844 10.5371V11.4766C11.9844 11.7566 11.7566 11.9844 11.4766 11.9844H1.52344C1.24345 11.9844 1.01562 11.7566 1.01562 11.4766V10.5371C1.01562 9.95283 1.26566 9.3982 1.70157 9.01516C2.21464 8.56428 3.70951 7.51562 6.5 7.51562C8.57201 7.51562 10.2578 5.82983 10.2578 3.75781C10.2578 1.6858 8.57201 0 6.5 0C4.42799 0 2.74219 1.6858 2.74219 3.75781C2.74219 4.96912 3.31844 6.04823 4.21107 6.73586C2.57774 7.09489 1.56172 7.786 1.0312 8.25225C0.3759 8.828 0 9.66074 0 10.5371V11.4766C0 12.3166 0.683365 13 1.52344 13H11.4766C12.3166 13 13 12.3166 13 11.4766V10.5371C13 9.66074 12.6241 8.828 11.9688 8.25225ZM3.75781 3.75781C3.75781 2.24578 4.98797 1.01562 6.5 1.01562C8.01203 1.01562 9.24219 2.24578 9.24219 3.75781C9.24219 5.26984 8.01203 6.5 6.5 6.5C4.98797 6.5 3.75781 5.26984 3.75781 3.75781Z" fill="white"></path>
                                </svg>