<svg xmlns="http://www.w3.org/2000/svg" width="21" height="20" viewBox="0 0 16 15" fill="none">
                                    <path d="M5.83326 12.3957L5.83364 12.396C6.31474 12.8239 6.85978 13.3088 7.42508 13.8247C7.58386 13.9698 7.78797 14.05 8 14.05C8.21192 14.05 8.41614 13.9698 8.57481 13.8249C9.14139 13.3078 9.68729 12.8221 10.1692 12.3936L10.1692 12.3936L10.1724 12.3908C11.5802 11.1386 12.8006 10.053 13.6507 8.98235C14.6034 7.78266 15.05 6.64083 15.05 5.39134C15.05 4.17994 14.6521 3.06008 13.927 2.23912L13.8895 2.27222L13.927 2.23912C13.1929 1.40814 12.1848 0.95 11.0891 0.95C10.2691 0.95 9.518 1.22086 8.85802 1.75361C8.54218 2.00852 8.25501 2.31722 8.00001 2.67479C7.74509 2.31721 7.45782 2.00852 7.1421 1.75361L7.14209 1.75361C6.4821 1.22086 5.73101 0.95 4.91101 0.95C3.81522 0.95 2.80722 1.40814 2.07315 2.23912L2.07315 2.23912C1.34801 3.06008 0.95 4.17994 0.95 5.39134C0.95 6.64083 1.39674 7.78266 2.34939 8.98246C3.19971 10.0533 4.42069 11.1393 5.82921 12.392L5.83081 12.3935L5.83118 12.3938L5.83326 12.3957ZM6.43202 11.6699L6.4316 11.6696L6.42946 11.6677C6.42938 11.6676 6.4293 11.6676 6.42922 11.6675C5.04686 10.4379 3.85778 9.38006 3.05907 8.37413C2.23425 7.33541 1.86999 6.41652 1.86999 5.39134C1.86999 4.41677 2.18394 3.5274 2.75094 2.88547C3.30926 2.25352 4.07603 1.90595 4.91101 1.90595C5.52125 1.90595 6.08161 2.10817 6.57759 2.50845C7.02057 2.86603 7.33007 3.31905 7.51193 3.63725L7.51194 3.63726C7.6149 3.81729 7.7973 3.92609 8 3.92609C8.2027 3.92609 8.3851 3.81729 8.48806 3.63726C8.67004 3.31905 8.97954 2.86602 9.42242 2.50844C9.9184 2.10817 10.4787 1.90595 11.0891 1.90595C11.924 1.90595 12.6909 2.25352 13.2491 2.88547C13.8161 3.52739 14.13 4.41677 14.13 5.39134C14.13 6.41652 13.7657 7.33541 12.941 8.37413C12.1424 9.37995 10.9536 10.4375 9.57153 11.6669L9.57087 11.6675C9.57087 11.6675 9.57087 11.6675 9.57086 11.6675C9.09651 12.0892 8.56005 12.5665 7.99889 13.0761C7.44099 12.5674 6.90539 12.091 6.43202 11.6699Z" fill="white" stroke="white" strokeWidth="0.1"></path>
                                </svg>